SourceCode_Black.ufo
<glyph name="GREATERCOMPONENT" format="1">
  <advance width="600"/>
  <outline>
    <contour>
      <point x="600" y="390" type="line"/>
      <point x="0" y="660" type="line"/>
      <point x="0" y="506" type="line"/>
      <point x="460" y="334" type="line"/>
      <point x="460" y="330" type="line"/>
      <point x="0" y="158" type="line"/>
      <point x="0" y="4" type="line"/>
      <point x="600" y="274" type="line"/>
    </contour>
  </outline>
</glyph>
<glyph name="LESSCOMPONENT" format="1">
  <advance width="600"/>
  <outline>
    <contour>
      <point x="600" y="4" type="line"/>
      <point x="600" y="158" type="line"/>
      <point x="140" y="330" type="line"/>
      <point x="140" y="334" type="line"/>
      <point x="600" y="506" type="line"/>
      <point x="600" y="660" type="line"/>
      <point x="0" y="390" type="line"/>
      <point x="0" y="274" type="line"/>
    </contour>
  </outline>
</glyph>
<glyph name="asciitilde_asciitilde" format="1">
  <advance width="1200"/>
  <outline>
    <contour>
      <point x="158" y="276"/>
      <point x="183" y="306"/>
      <point x="208" y="306" type="curve" smooth="yes"/>
      <point x="260" y="306"/>
      <point x="291" y="234"/>
      <point x="373" y="234" type="curve" smooth="yes"/>
      <point x="412" y="234"/>
      <point x="451" y="249"/>
      <point x="483" y="287" type="curve" smooth="yes"/>
      <point x="493" y="299"/>
      <point x="505" y="306"/>
      <point x="518" y="306" type="curve" smooth="yes"/>
      <point x="570" y="306"/>
      <point x="601" y="234"/>
      <point x="682" y="234" type="curve" smooth="yes"/>
      <point x="721" y="234"/>
      <point x="759" y="249"/>
      <point x="791" y="287" type="curve" smooth="yes"/>
      <point x="801" y="299"/>
      <point x="814" y="306"/>
      <point x="826" y="306" type="curve" smooth="yes"/>
      <point x="877" y="306"/>
      <point x="909" y="234"/>
      <point x="990" y="234" type="curve" smooth="yes"/>
      <point x="1054" y="234"/>
      <point x="1114" y="278"/>
      <point x="1158" y="386" type="curve"/>
      <point x="1060" y="434" type="line"/>
      <point x="1042" y="384"/>
      <point x="1018" y="354"/>
      <point x="992" y="354" type="curve" smooth="yes"/>
      <point x="940" y="354"/>
      <point x="909" y="426"/>
      <point x="827" y="426" type="curve" smooth="yes"/>
      <point x="789" y="426"/>
      <point x="752" y="409"/>
      <point x="718" y="373" type="curve" smooth="yes"/>
      <point x="707" y="361"/>
      <point x="696" y="354"/>
      <point x="684" y="354" type="curve" smooth="yes"/>
      <point x="631" y="354"/>
      <point x="601" y="426"/>
      <point x="519" y="426" type="curve" smooth="yes"/>
      <point x="481" y="426"/>
      <point x="444" y="409"/>
      <point x="410" y="373" type="curve" smooth="yes"/>
      <point x="399" y="361"/>
      <point x="387" y="354"/>
      <point x="375" y="354" type="curve" smooth="yes"/>
      <point x="323" y="354"/>
      <point x="291" y="426"/>
      <point x="210" y="426" type="curve" smooth="yes"/>
      <point x="147" y="426"/>
      <point x="86" y="382"/>
      <point x="42" y="274" type="curve"/>
      <point x="140" y="226" type="line"/>
    </contour>
  </outline>
</glyph>
<glyph name="asciitilde_asciitilde_greater" format="1">
  <advance width="1800"/>
  <outline>
    <contour>
      <point x="1690" y="328" type="line"/>
      <point x="1690" y="332" type="line"/>
      <point x="1358" y="650" type="line"/>
      <point x="1278" y="558" type="line"/>
      <point x="1432" y="424" type="line"/>
      <point x="1425" y="425"/>
      <point x="1418" y="426"/>
      <point x="1410" y="426" type="curve" smooth="yes"/>
      <point x="1373" y="426"/>
      <point x="1337" y="409"/>
      <point x="1304" y="373" type="curve" smooth="yes"/>
      <point x="1293" y="361"/>
      <point x="1282" y="354"/>
      <point x="1270" y="354" type="curve" smooth="yes"/>
      <point x="1219" y="354"/>
      <point x="1189" y="426"/>
      <point x="1109" y="426" type="curve" smooth="yes"/>
      <point x="1072" y="426"/>
      <point x="1036" y="409"/>
      <point x="1003" y="373" type="curve" smooth="yes"/>
      <point x="992" y="361"/>
      <point x="981" y="354"/>
      <point x="969" y="354" type="curve" smooth="yes"/>
      <point x="918" y="354"/>
      <point x="888" y="426"/>
      <point x="808" y="426" type="curve" smooth="yes"/>
      <point x="771" y="426"/>
      <point x="735" y="409"/>
      <point x="702" y="373" type="curve" smooth="yes"/>
      <point x="691" y="361"/>
      <point x="680" y="354"/>
      <point x="668" y="354" type="curve" smooth="yes"/>
      <point x="617" y="354"/>
      <point x="587" y="426"/>
      <point x="507" y="426" type="curve" smooth="yes"/>
      <point x="470" y="426"/>
      <point x="434" y="409"/>
      <point x="401" y="373" type="curve" smooth="yes"/>
      <point x="390" y="361"/>
      <point x="379" y="354"/>
      <point x="367" y="354" type="curve" smooth="yes"/>
      <point x="316" y="354"/>
      <point x="285" y="426"/>
      <point x="206" y="426" type="curve" smooth="yes"/>
      <point x="144" y="426"/>
      <point x="85" y="382"/>
      <point x="42" y="274" type="curve"/>
      <point x="138" y="226" type="line"/>
      <point x="155" y="276"/>
      <point x="180" y="306"/>
      <point x="204" y="306" type="curve" smooth="yes"/>
      <point x="255" y="306"/>
      <point x="285" y="234"/>
      <point x="365" y="234" type="curve" smooth="yes"/>
      <point x="403" y="234"/>
      <point x="441" y="249"/>
      <point x="472" y="287" type="curve" smooth="yes"/>
      <point x="482" y="299"/>
      <point x="494" y="306"/>
      <point x="506" y="306" type="curve" smooth="yes"/>
      <point x="557" y="306"/>
      <point x="587" y="234"/>
      <point x="666" y="234" type="curve" smooth="yes"/>
      <point x="704" y="234"/>
      <point x="742" y="249"/>
      <point x="773" y="287" type="curve" smooth="yes"/>
      <point x="783" y="299"/>
      <point x="795" y="306"/>
      <point x="807" y="306" type="curve" smooth="yes"/>
      <point x="857" y="306"/>
      <point x="888" y="234"/>
      <point x="967" y="234" type="curve" smooth="yes"/>
      <point x="1005" y="234"/>
      <point x="1043" y="249"/>
      <point x="1074" y="287" type="curve" smooth="yes"/>
      <point x="1084" y="299"/>
      <point x="1096" y="306"/>
      <point x="1108" y="306" type="curve" smooth="yes"/>
      <point x="1159" y="306"/>
      <point x="1189" y="234"/>
      <point x="1268" y="234" type="curve" smooth="yes"/>
      <point x="1306" y="234"/>
      <point x="1344" y="249"/>
      <point x="1375" y="287" type="curve" smooth="yes"/>
      <point x="1385" y="299"/>
      <point x="1397" y="306"/>
      <point x="1409" y="306" type="curve" smooth="yes"/>
      <point x="1433" y="306"/>
      <point x="1452" y="290"/>
      <point x="1474" y="273" type="curve"/>
      <point x="1278" y="102" type="line"/>
      <point x="1358" y="10" type="line"/>
    </contour>
  </outline>
</glyph>
<glyph name="asciitilde_greater" format="1">
  <advance width="1200"/>
  <outline>
    <contour>
      <point x="1090" y="328" type="line"/>
      <point x="1090" y="332" type="line"/>
      <point x="758" y="650" type="line"/>
      <point x="678" y="558" type="line"/>
      <point x="833" y="424" type="line"/>
      <point x="825" y="425"/>
      <point x="817" y="426"/>
      <point x="808" y="426" type="curve" smooth="yes"/>
      <point x="771" y="426"/>
      <point x="735" y="409"/>
      <point x="702" y="373" type="curve" smooth="yes"/>
      <point x="691" y="361"/>
      <point x="680" y="354"/>
      <point x="668" y="354" type="curve" smooth="yes"/>
      <point x="617" y="354"/>
      <point x="587" y="426"/>
      <point x="507" y="426" type="curve" smooth="yes"/>
      <point x="470" y="426"/>
      <point x="434" y="409"/>
      <point x="401" y="373" type="curve" smooth="yes"/>
      <point x="390" y="361"/>
      <point x="379" y="354"/>
      <point x="367" y="354" type="curve" smooth="yes"/>
      <point x="316" y="354"/>
      <point x="285" y="426"/>
      <point x="206" y="426" type="curve" smooth="yes"/>
      <point x="144" y="426"/>
      <point x="85" y="382"/>
      <point x="42" y="274" type="curve"/>
      <point x="138" y="226" type="line"/>
      <point x="155" y="276"/>
      <point x="180" y="306"/>
      <point x="204" y="306" type="curve" smooth="yes"/>
      <point x="255" y="306"/>
      <point x="285" y="234"/>
      <point x="365" y="234" type="curve" smooth="yes"/>
      <point x="403" y="234"/>
      <point x="441" y="249"/>
      <point x="472" y="287" type="curve" smooth="yes"/>
      <point x="482" y="299"/>
      <point x="494" y="306"/>
      <point x="506" y="306" type="curve" smooth="yes"/>
      <point x="557" y="306"/>
      <point x="587" y="234"/>
      <point x="666" y="234" type="curve" smooth="yes"/>
      <point x="704" y="234"/>
      <point x="742" y="249"/>
      <point x="773" y="287" type="curve" smooth="yes"/>
      <point x="783" y="299"/>
      <point x="795" y="306"/>
      <point x="807" y="306" type="curve" smooth="yes"/>
      <point x="831" y="306"/>
      <point x="851" y="289"/>
      <point x="874" y="272" type="curve"/>
      <point x="678" y="102" type="line"/>
      <point x="758" y="10" type="line"/>
    </contour>
  </outline>
</glyph>
<glyph name="colon_equal" format="1">
  <advance width="1200"/>
  <outline>
    <contour>
      <point x="1136" y="390" type="line"/>
      <point x="1136" y="510" type="line"/>
      <point x="528" y="510" type="line"/>
      <point x="528" y="390" type="line"/>
    </contour>
    <contour>
      <point x="378" y="45"/>
      <point x="430" y="103"/>
      <point x="430" y="175" type="curve" smooth="yes"/>
      <point x="430" y="246"/>
      <point x="378" y="305"/>
      <point x="300" y="305" type="curve" smooth="yes"/>
      <point x="222" y="305"/>
      <point x="170" y="246"/>
      <point x="170" y="175" type="curve" smooth="yes"/>
      <point x="170" y="103"/>
      <point x="222" y="45"/>
      <point x="300" y="45" type="curve" smooth="yes"/>
    </contour>
    <contour>
      <point x="378" y="355"/>
      <point x="430" y="413"/>
      <point x="430" y="485" type="curve" smooth="yes"/>
      <point x="430" y="556"/>
      <point x="378" y="615"/>
      <point x="300" y="615" type="curve" smooth="yes"/>
      <point x="222" y="615"/>
      <point x="170" y="556"/>
      <point x="170" y="485" type="curve" smooth="yes"/>
      <point x="170" y="413"/>
      <point x="222" y="355"/>
      <point x="300" y="355" type="curve" smooth="yes"/>
    </contour>
    <contour>
      <point x="1136" y="150" type="line"/>
      <point x="1136" y="270" type="line"/>
      <point x="528" y="270" type="line"/>
      <point x="528" y="150" type="line"/>
    </contour>
  </outline>
</glyph>
<glyph name="dollar_greater" format="1">
  <advance width="1200"/>
  <outline>
    <contour>
      <point x="494" y="-8" type="line"/>
      <point x="494" y="112" type="line"/>
      <point x="584" y="129"/>
      <point x="629" y="185"/>
      <point x="629" y="251" type="curve" smooth="yes"/>
      <point x="629" y="397"/>
      <point x="404" y="394"/>
      <point x="404" y="438" type="curve" smooth="yes"/>
      <point x="404" y="455"/>
      <point x="418" y="464"/>
      <point x="447" y="464" type="curve" smooth="yes"/>
      <point x="488" y="464"/>
      <point x="517" y="451"/>
      <point x="556" y="426" type="curve"/>
      <point x="623" y="504" type="line"/>
      <point x="589" y="538"/>
      <point x="548" y="563"/>
      <point x="494" y="571" type="curve"/>
      <point x="494" y="675" type="line"/>
      <point x="405" y="675" type="line"/>
      <point x="405" y="570" type="line"/>
      <point x="322" y="556"/>
      <point x="273" y="507"/>
      <point x="273" y="437" type="curve" smooth="yes"/>
      <point x="273" y="286"/>
      <point x="498" y="296"/>
      <point x="498" y="242" type="curve" smooth="yes"/>
      <point x="498" y="226"/>
      <point x="483" y="218"/>
      <point x="453" y="218" type="curve" smooth="yes"/>
      <point x="407" y="218"/>
      <point x="365" y="234"/>
      <point x="311" y="266" type="curve"/>
      <point x="252" y="173" type="line"/>
      <point x="293" y="137"/>
      <point x="354" y="115"/>
      <point x="405" y="109" type="curve"/>
      <point x="405" y="-8" type="line"/>
    </contour>
    <contour>
      <point x="1086" y="274" type="line"/>
      <point x="1086" y="390" type="line"/>
      <point x="694" y="640" type="line"/>
      <point x="694" y="486" type="line"/>
      <point x="946" y="334" type="line"/>
      <point x="946" y="330" type="line"/>
      <point x="694" y="178" type="line"/>
      <point x="694" y="24" type="line"/>
    </contour>
  </outline>
</glyph>
<glyph name="equal_colon_equal" format="1">
  <advance width="1800"/>
  <outline>
    <contour>
      <point x="1736" y="390" type="line"/>
      <point x="1736" y="510" type="line"/>
      <point x="1128" y="510" type="line"/>
      <point x="1128" y="390" type="line"/>
    </contour>
    <contour>
      <point x="672" y="150" type="line"/>
      <point x="672" y="270" type="line"/>
      <point x="64" y="270" type="line"/>
      <point x="64" y="150" type="line"/>
    </contour>
    <contour>
      <point x="672" y="390" type="line"/>
      <point x="672" y="510" type="line"/>
      <point x="64" y="510" type="line"/>
      <point x="64" y="390" type="line"/>
    </contour>
    <contour>
      <point x="978" y="45"/>
      <point x="1030" y="103"/>
      <point x="1030" y="175" type="curve" smooth="yes"/>
      <point x="1030" y="246"/>
      <point x="978" y="305"/>
      <point x="900" y="305" type="curve" smooth="yes"/>
      <point x="822" y="305"/>
      <point x="770" y="246"/>
      <point x="770" y="175" type="curve" smooth="yes"/>
      <point x="770" y="103"/>
      <point x="822" y="45"/>
      <point x="900" y="45" type="curve" smooth="yes"/>
    </contour>
    <contour>
      <point x="978" y="355"/>
      <point x="1030" y="413"/>
      <point x="1030" y="485" type="curve" smooth="yes"/>
      <point x="1030" y="556"/>
      <point x="978" y="615"/>
      <point x="900" y="615" type="curve" smooth="yes"/>
      <point x="822" y="615"/>
      <point x="770" y="556"/>
      <point x="770" y="485" type="curve" smooth="yes"/>
      <point x="770" y="413"/>
      <point x="822" y="355"/>
      <point x="900" y="355" type="curve" smooth="yes"/>
    </contour>
    <contour>
      <point x="1736" y="150" type="line"/>
      <point x="1736" y="270" type="line"/>
      <point x="1128" y="270" type="line"/>
      <point x="1128" y="150" type="line"/>
    </contour>
  </outline>
</glyph>
<glyph name="equal_exclam_equal" format="1">
  <advance width="1800"/>
  <outline>
    <contour>
      <point x="1736" y="390" type="line"/>
      <point x="1736" y="510" type="line"/>
      <point x="1128" y="510" type="line"/>
      <point x="1128" y="390" type="line"/>
    </contour>
    <contour>
      <point x="672" y="150" type="line"/>
      <point x="672" y="270" type="line"/>
      <point x="64" y="270" type="line"/>
      <point x="64" y="150" type="line"/>
    </contour>
    <contour>
      <point x="672" y="390" type="line"/>
      <point x="672" y="510" type="line"/>
      <point x="64" y="510" type="line"/>
      <point x="64" y="390" type="line"/>
    </contour>
    <contour>
      <point x="1736" y="150" type="line"/>
      <point x="1736" y="270" type="line"/>
      <point x="1128" y="270" type="line"/>
      <point x="1128" y="150" type="line"/>
    </contour>
    <component base="exclam" xOffset="600"/>
  </outline>
</glyph>
<glyph name="equal_greater" format="1">
  <advance width="1200"/>
  <outline>
    <contour>
      <point x="1188" y="328" type="line"/>
      <point x="1188" y="332" type="line"/>
      <point x="908" y="600" type="line"/>
      <point x="828" y="508" type="line"/>
      <point x="892" y="454" type="line"/>
      <point x="32" y="454" type="line"/>
      <point x="32" y="356" type="line"/>
      <point x="1008" y="356" type="line"/>
      <point x="1036" y="332" type="line"/>
      <point x="1036" y="328" type="line"/>
      <point x="1008" y="304" type="line"/>
      <point x="32" y="304" type="line"/>
      <point x="32" y="206" type="line"/>
      <point x="892" y="206" type="line"/>
      <point x="828" y="152" type="line"/>
      <point x="908" y="60" type="line"/>
    </contour>
  </outline>
</glyph>
<glyph name="equal_less_less" format="1">
  <advance width="1800"/>
  <outline>
    <contour>
      <point x="1100" y="390" type="line"/>
      <point x="1256" y="484" type="line"/>
      <point x="1256" y="638" type="line"/>
      <point x="1055" y="510" type="line"/>
      <point x="64" y="510" type="line"/>
      <point x="64" y="390" type="line"/>
    </contour>
    <contour>
      <point x="1256" y="176" type="line"/>
      <point x="1100" y="270" type="line"/>
      <point x="64" y="270" type="line"/>
      <point x="64" y="150" type="line"/>
      <point x="1055" y="150" type="line"/>
      <point x="1256" y="22" type="line"/>
    </contour>
    <contour>
      <point x="1706" y="176" type="line"/>
      <point x="1454" y="328" type="line"/>
      <point x="1454" y="332" type="line"/>
      <point x="1706" y="484" type="line"/>
      <point x="1706" y="638" type="line"/>
      <point x="1314" y="388" type="line"/>
      <point x="1314" y="272" type="line"/>
      <point x="1706" y="22" type="line"/>
    </contour>
  </outline>
</glyph>
<glyph name="hyphen_greater" format="1">
  <advance width="1200"/>
  <outline>
    <contour>
      <point x="64" y="270" type="line"/>
      <point x="846" y="270" type="line"/>
      <point x="694" y="178" type="line"/>
      <point x="694" y="24" type="line"/>
      <point x="1177" y="331" type="line"/>
      <point x="694" y="640" type="line"/>
      <point x="694" y="486" type="line"/>
      <point x="853" y="390" type="line"/>
      <point x="64" y="390" type="line"/>
    </contour>
  </outline>
</glyph>
<glyph name="hyphen_greater_greater" format="1">
  <advance width="1800"/>
  <outline>
    <contour>
      <point x="1369" y="263" type="line"/>
      <point x="1558" y="263" type="line"/>
      <point x="1428" y="153" type="line"/>
      <point x="1508" y="61" type="line"/>
      <point x="1788" y="329" type="line"/>
      <point x="1788" y="333" type="line"/>
      <point x="1508" y="601" type="line"/>
      <point x="1428" y="509" type="line"/>
      <point x="1558" y="399" type="line"/>
      <point x="1369" y="399" type="line"/>
      <point x="1158" y="601" type="line"/>
      <point x="1078" y="509" type="line"/>
      <point x="1208" y="399" type="line"/>
      <point x="32" y="399" type="line"/>
      <point x="32" y="263" type="line"/>
      <point x="1208" y="263" type="line"/>
      <point x="1078" y="153" type="line"/>
      <point x="1158" y="61" type="line"/>
    </contour>
  </outline>
</glyph>
<glyph name="hyphen_less" format="1">
  <advance width="1200"/>
  <outline>
    <contour>
      <point x="1106" y="176" type="line"/>
      <point x="854" y="328" type="line"/>
      <point x="854" y="332" type="line"/>
      <point x="1106" y="484" type="line"/>
      <point x="1106" y="638" type="line"/>
      <point x="717" y="390" type="line"/>
      <point x="64" y="390" type="line"/>
      <point x="64" y="270" type="line"/>
      <point x="717" y="270" type="line"/>
      <point x="1106" y="22" type="line"/>
    </contour>
  </outline>
</glyph>
<glyph name="hyphen_less_less" format="1">
  <advance width="1800"/>
  <outline>
    <contour>
      <point x="1366" y="102" type="line"/>
      <point x="1173" y="270" type="line"/>
      <point x="1361" y="270" type="line"/>
      <point x="1632" y="10" type="line"/>
      <point x="1712" y="102" type="line"/>
      <point x="1452" y="328" type="line"/>
      <point x="1452" y="332" type="line"/>
      <point x="1712" y="558" type="line"/>
      <point x="1632" y="650" type="line"/>
      <point x="1361" y="390" type="line"/>
      <point x="1173" y="390" type="line"/>
      <point x="1366" y="558" type="line"/>
      <point x="1286" y="650" type="line"/>
      <point x="1015" y="390" type="line"/>
      <point x="64" y="390" type="line"/>
      <point x="64" y="270" type="line"/>
      <point x="1015" y="270" type="line"/>
      <point x="1286" y="10" type="line"/>
    </contour>
  </outline>
</glyph>
<glyph name="less_asciitilde" format="1">
  <advance width="1200"/>
  <outline>
    <contour>
      <point x="522" y="102" type="line"/>
      <point x="367" y="236" type="line"/>
      <point x="375" y="235"/>
      <point x="383" y="234"/>
      <point x="392" y="234" type="curve" smooth="yes"/>
      <point x="430" y="234"/>
      <point x="467" y="250"/>
      <point x="499" y="287" type="curve" smooth="yes"/>
      <point x="509" y="299"/>
      <point x="522" y="306"/>
      <point x="533" y="306" type="curve" smooth="yes"/>
      <point x="584" y="306"/>
      <point x="614" y="234"/>
      <point x="693" y="234" type="curve" smooth="yes"/>
      <point x="731" y="234"/>
      <point x="768" y="250"/>
      <point x="800" y="287" type="curve" smooth="yes"/>
      <point x="810" y="299"/>
      <point x="822" y="306"/>
      <point x="834" y="306" type="curve" smooth="yes"/>
      <point x="885" y="306"/>
      <point x="915" y="234"/>
      <point x="994" y="234" type="curve" smooth="yes"/>
      <point x="1056" y="234"/>
      <point x="1115" y="278"/>
      <point x="1158" y="386" type="curve"/>
      <point x="1062" y="434" type="line"/>
      <point x="1045" y="384"/>
      <point x="1021" y="354"/>
      <point x="996" y="354" type="curve" smooth="yes"/>
      <point x="945" y="354"/>
      <point x="915" y="426"/>
      <point x="836" y="426" type="curve" smooth="yes"/>
      <point x="798" y="426"/>
      <point x="761" y="410"/>
      <point x="729" y="373" type="curve" smooth="yes"/>
      <point x="719" y="361"/>
      <point x="707" y="354"/>
      <point x="695" y="354" type="curve" smooth="yes"/>
      <point x="644" y="354"/>
      <point x="614" y="426"/>
      <point x="535" y="426" type="curve" smooth="yes"/>
      <point x="497" y="426"/>
      <point x="460" y="410"/>
      <point x="428" y="373" type="curve" smooth="yes"/>
      <point x="418" y="361"/>
      <point x="406" y="354"/>
      <point x="394" y="354" type="curve" smooth="yes"/>
      <point x="369" y="354"/>
      <point x="350" y="371"/>
      <point x="327" y="388" type="curve"/>
      <point x="522" y="558" type="line"/>
      <point x="442" y="650" type="line"/>
      <point x="110" y="332" type="line"/>
      <point x="110" y="328" type="line"/>
      <point x="442" y="10" type="line"/>
    </contour>
  </outline>
</glyph>
<glyph name="less_asciitilde_asciitilde_greater" format="1">
  <advance width="2400"/>
  <outline>
    <contour>
      <point x="522" y="102" type="line"/>
      <point x="354" y="248" type="line"/>
      <point x="369" y="240"/>
      <point x="387" y="234"/>
      <point x="409" y="234" type="curve" smooth="yes"/>
      <point x="446" y="234"/>
      <point x="483" y="249"/>
      <point x="512" y="287" type="curve" smooth="yes"/>
      <point x="521" y="299"/>
      <point x="533" y="306"/>
      <point x="545" y="306" type="curve" smooth="yes"/>
      <point x="593" y="306"/>
      <point x="622" y="234"/>
      <point x="699" y="234" type="curve" smooth="yes"/>
      <point x="735" y="234"/>
      <point x="773" y="248"/>
      <point x="802" y="287" type="curve" smooth="yes"/>
      <point x="811" y="299"/>
      <point x="822" y="306"/>
      <point x="834" y="306" type="curve" smooth="yes"/>
      <point x="883" y="306"/>
      <point x="911" y="234"/>
      <point x="988" y="234" type="curve" smooth="yes"/>
      <point x="1024" y="234"/>
      <point x="1062" y="248"/>
      <point x="1091" y="287" type="curve" smooth="yes"/>
      <point x="1100" y="299"/>
      <point x="1111" y="306"/>
      <point x="1123" y="306" type="curve" smooth="yes"/>
      <point x="1171" y="306"/>
      <point x="1202" y="234"/>
      <point x="1277" y="234" type="curve" smooth="yes"/>
      <point x="1313" y="234"/>
      <point x="1349" y="249"/>
      <point x="1380" y="287" type="curve" smooth="yes"/>
      <point x="1390" y="299"/>
      <point x="1401" y="306"/>
      <point x="1412" y="306" type="curve" smooth="yes"/>
      <point x="1461" y="306"/>
      <point x="1491" y="234"/>
      <point x="1566" y="234" type="curve" smooth="yes"/>
      <point x="1603" y="234"/>
      <point x="1638" y="249"/>
      <point x="1669" y="287" type="curve" smooth="yes"/>
      <point x="1679" y="299"/>
      <point x="1691" y="306"/>
      <point x="1702" y="306" type="curve" smooth="yes"/>
      <point x="1750" y="306"/>
      <point x="1780" y="234"/>
      <point x="1855" y="234" type="curve" smooth="yes"/>
      <point x="1892" y="234"/>
      <point x="1927" y="250"/>
      <point x="1958" y="287" type="curve" smooth="yes"/>
      <point x="1968" y="299"/>
      <point x="1980" y="306"/>
      <point x="1991" y="306" type="curve" smooth="yes"/>
      <point x="2018" y="306"/>
      <point x="2039" y="284"/>
      <point x="2065" y="265" type="curve"/>
      <point x="1878" y="102" type="line"/>
      <point x="1958" y="10" type="line"/>
      <point x="2290" y="328" type="line"/>
      <point x="2290" y="332" type="line"/>
      <point x="1958" y="650" type="line"/>
      <point x="1878" y="558" type="line"/>
      <point x="2044" y="414" type="line"/>
      <point x="2029" y="421"/>
      <point x="2012" y="426"/>
      <point x="1992" y="426" type="curve" smooth="yes"/>
      <point x="1956" y="426"/>
      <point x="1924" y="409"/>
      <point x="1891" y="373" type="curve" smooth="yes"/>
      <point x="1880" y="361"/>
      <point x="1869" y="354"/>
      <point x="1857" y="354" type="curve" smooth="yes"/>
      <point x="1808" y="354"/>
      <point x="1780" y="426"/>
      <point x="1703" y="426" type="curve" smooth="yes"/>
      <point x="1667" y="426"/>
      <point x="1634" y="409"/>
      <point x="1601" y="373" type="curve" smooth="yes"/>
      <point x="1590" y="361"/>
      <point x="1580" y="354"/>
      <point x="1568" y="354" type="curve" smooth="yes"/>
      <point x="1519" y="354"/>
      <point x="1491" y="426"/>
      <point x="1413" y="426" type="curve" smooth="yes"/>
      <point x="1378" y="426"/>
      <point x="1344" y="409"/>
      <point x="1311" y="373" type="curve" smooth="yes"/>
      <point x="1300" y="361"/>
      <point x="1291" y="354"/>
      <point x="1279" y="354" type="curve" smooth="yes"/>
      <point x="1230" y="354"/>
      <point x="1202" y="426"/>
      <point x="1124" y="426" type="curve" smooth="yes"/>
      <point x="1089" y="426"/>
      <point x="1055" y="409"/>
      <point x="1022" y="373" type="curve" smooth="yes"/>
      <point x="1011" y="361"/>
      <point x="1002" y="354"/>
      <point x="990" y="354" type="curve" smooth="yes"/>
      <point x="941" y="354"/>
      <point x="911" y="426"/>
      <point x="835" y="426" type="curve" smooth="yes"/>
      <point x="800" y="426"/>
      <point x="766" y="409"/>
      <point x="733" y="373" type="curve" smooth="yes"/>
      <point x="722" y="361"/>
      <point x="712" y="354"/>
      <point x="701" y="354" type="curve" smooth="yes"/>
      <point x="652" y="354"/>
      <point x="622" y="426"/>
      <point x="546" y="426" type="curve" smooth="yes"/>
      <point x="510" y="426"/>
      <point x="477" y="409"/>
      <point x="444" y="373" type="curve" smooth="yes"/>
      <point x="433" y="361"/>
      <point x="422" y="354"/>
      <point x="411" y="354" type="curve" smooth="yes"/>
      <point x="384" y="354"/>
      <point x="363" y="376"/>
      <point x="336" y="396" type="curve"/>
      <point x="522" y="558" type="line"/>
      <point x="442" y="650" type="line"/>
      <point x="110" y="332" type="line"/>
      <point x="110" y="328" type="line"/>
      <point x="442" y="10" type="line"/>
    </contour>
  </outline>
</glyph>
<glyph name="less_asciitilde_greater" format="1">
  <advance width="1800"/>
  <outline>
    <contour>
      <point x="522" y="102" type="line"/>
      <point x="367" y="237" type="line"/>
      <point x="375" y="235"/>
      <point x="384" y="234"/>
      <point x="393" y="234" type="curve" smooth="yes"/>
      <point x="429" y="234"/>
      <point x="468" y="248"/>
      <point x="497" y="287" type="curve" smooth="yes"/>
      <point x="506" y="299"/>
      <point x="518" y="306"/>
      <point x="529" y="306" type="curve" smooth="yes"/>
      <point x="578" y="306"/>
      <point x="608" y="234"/>
      <point x="685" y="234" type="curve" smooth="yes"/>
      <point x="721" y="234"/>
      <point x="760" y="248"/>
      <point x="789" y="287" type="curve" smooth="yes"/>
      <point x="798" y="299"/>
      <point x="810" y="306"/>
      <point x="821" y="306" type="curve" smooth="yes"/>
      <point x="871" y="306"/>
      <point x="901" y="234"/>
      <point x="977" y="234" type="curve" smooth="yes"/>
      <point x="1013" y="234"/>
      <point x="1050" y="249"/>
      <point x="1081" y="287" type="curve" smooth="yes"/>
      <point x="1091" y="299"/>
      <point x="1103" y="306"/>
      <point x="1113" y="306" type="curve" smooth="yes"/>
      <point x="1162" y="306"/>
      <point x="1193" y="234"/>
      <point x="1269" y="234" type="curve" smooth="yes"/>
      <point x="1306" y="234"/>
      <point x="1342" y="249"/>
      <point x="1373" y="287" type="curve" smooth="yes"/>
      <point x="1383" y="299"/>
      <point x="1395" y="306"/>
      <point x="1406" y="306" type="curve" smooth="yes"/>
      <point x="1430" y="306"/>
      <point x="1450" y="289"/>
      <point x="1472" y="271" type="curve"/>
      <point x="1278" y="102" type="line"/>
      <point x="1358" y="10" type="line"/>
      <point x="1690" y="328" type="line"/>
      <point x="1690" y="332" type="line"/>
      <point x="1358" y="650" type="line"/>
      <point x="1278" y="558" type="line"/>
      <point x="1433" y="423" type="line"/>
      <point x="1425" y="425"/>
      <point x="1416" y="426"/>
      <point x="1407" y="426" type="curve" smooth="yes"/>
      <point x="1371" y="426"/>
      <point x="1338" y="409"/>
      <point x="1305" y="373" type="curve" smooth="yes"/>
      <point x="1294" y="361"/>
      <point x="1283" y="354"/>
      <point x="1271" y="354" type="curve" smooth="yes"/>
      <point x="1220" y="354"/>
      <point x="1193" y="426"/>
      <point x="1114" y="426" type="curve" smooth="yes"/>
      <point x="1079" y="426"/>
      <point x="1045" y="409"/>
      <point x="1012" y="373" type="curve" smooth="yes"/>
      <point x="1001" y="361"/>
      <point x="991" y="354"/>
      <point x="979" y="354" type="curve" smooth="yes"/>
      <point x="928" y="354"/>
      <point x="901" y="426"/>
      <point x="822" y="426" type="curve" smooth="yes"/>
      <point x="787" y="426"/>
      <point x="752" y="409"/>
      <point x="719" y="373" type="curve" smooth="yes"/>
      <point x="708" y="361"/>
      <point x="699" y="354"/>
      <point x="687" y="354" type="curve" smooth="yes"/>
      <point x="636" y="354"/>
      <point x="608" y="426"/>
      <point x="530" y="426" type="curve" smooth="yes"/>
      <point x="495" y="426"/>
      <point x="460" y="409"/>
      <point x="427" y="373" type="curve" smooth="yes"/>
      <point x="416" y="361"/>
      <point x="406" y="354"/>
      <point x="395" y="354" type="curve" smooth="yes"/>
      <point x="370" y="354"/>
      <point x="350" y="371"/>
      <point x="328" y="389" type="curve"/>
      <point x="522" y="558" type="line"/>
      <point x="442" y="650" type="line"/>
      <point x="110" y="332" type="line"/>
      <point x="110" y="328" type="line"/>
      <point x="442" y="10" type="line"/>
    </contour>
  </outline>
</glyph>
<glyph name="less_asterisk_greater" format="1">
  <advance width="1800"/>
  <outline>
    <contour>
      <point x="1536" y="274" type="line"/>
      <point x="1536" y="390" type="line"/>
      <point x="1144" y="640" type="line"/>
      <point x="1144" y="486" type="line"/>
      <point x="1396" y="334" type="line"/>
      <point x="1396" y="330" type="line"/>
      <point x="1144" y="178" type="line"/>
      <point x="1144" y="24" type="line"/>
    </contour>
    <contour>
      <point x="656" y="178" type="line"/>
      <point x="404" y="330" type="line"/>
      <point x="404" y="334" type="line"/>
      <point x="656" y="486" type="line"/>
      <point x="656" y="640" type="line"/>
      <point x="264" y="390" type="line"/>
      <point x="264" y="274" type="line"/>
      <point x="656" y="24" type="line"/>
    </contour>
    <contour>
      <point x="900" y="243" type="line"/>
      <point x="1014" y="107" type="line"/>
      <point x="1087" y="157" type="line"/>
      <point x="994" y="310" type="line"/>
      <point x="1144" y="377" type="line"/>
      <point x="1118" y="459" type="line"/>
      <point x="958" y="420" type="line"/>
      <point x="944" y="594" type="line"/>
      <point x="856" y="594" type="line"/>
      <point x="842" y="420" type="line"/>
      <point x="682" y="459" type="line"/>
      <point x="656" y="377" type="line"/>
      <point x="806" y="310" type="line"/>
      <point x="713" y="157" type="line"/>
      <point x="786" y="107" type="line"/>
    </contour>
  </outline>
</glyph>
<glyph name="less_bar_bar" format="1">
  <advance width="1800"/>
  <outline>
    <contour>
      <point x="774" y="98" type="line"/>
      <point x="404" y="330" type="line"/>
      <point x="404" y="334" type="line"/>
      <point x="774" y="565" type="line"/>
      <point x="774" y="715" type="line"/>
      <point x="264" y="390" type="line"/>
      <point x="264" y="274" type="line"/>
      <point x="774" y="-51" type="line"/>
    </contour>
    <contour>
      <point x="976" y="-86" type="line"/>
      <point x="976" y="750" type="line"/>
      <point x="824" y="750" type="line"/>
      <point x="824" y="-86" type="line"/>
    </contour>
    <contour>
      <point x="1426" y="-86" type="line"/>
      <point x="1426" y="750" type="line"/>
      <point x="1274" y="750" type="line"/>
      <point x="1274" y="-86" type="line"/>
    </contour>
  </outline>
</glyph>
<glyph name="less_bar_bar_bar" format="1">
  <advance width="2400"/>
  <outline>
    <contour>
      <point x="846" y="98" type="line"/>
      <point x="476" y="330" type="line"/>
      <point x="476" y="334" type="line"/>
      <point x="846" y="565" type="line"/>
      <point x="846" y="715" type="line"/>
      <point x="336" y="390" type="line"/>
      <point x="336" y="274" type="line"/>
      <point x="846" y="-51" type="line"/>
    </contour>
    <contour>
      <point x="1048" y="-86" type="line"/>
      <point x="1048" y="750" type="line"/>
      <point x="896" y="750" type="line"/>
      <point x="896" y="-86" type="line"/>
    </contour>
    <contour>
      <point x="1498" y="-86" type="line"/>
      <point x="1498" y="750" type="line"/>
      <point x="1346" y="750" type="line"/>
      <point x="1346" y="-86" type="line"/>
    </contour>
    <contour>
      <point x="1948" y="-86" type="line"/>
      <point x="1948" y="750" type="line"/>
      <point x="1796" y="750" type="line"/>
      <point x="1796" y="-86" type="line"/>
    </contour>
  </outline>
</glyph>
<glyph name="less_bar_greater" format="1">
  <advance width="1800"/>
  <outline>
    <contour>
      <point x="1536" y="274" type="line"/>
      <point x="1536" y="390" type="line"/>
      <point x="1026" y="715" type="line"/>
      <point x="1026" y="565" type="line"/>
      <point x="1396" y="334" type="line"/>
      <point x="1396" y="330" type="line"/>
      <point x="1026" y="98" type="line"/>
      <point x="1026" y="-51" type="line"/>
    </contour>
    <contour>
      <point x="774" y="98" type="line"/>
      <point x="404" y="330" type="line"/>
      <point x="404" y="334" type="line"/>
      <point x="774" y="565" type="line"/>
      <point x="774" y="715" type="line"/>
      <point x="264" y="390" type="line"/>
      <point x="264" y="274" type="line"/>
      <point x="774" y="-51" type="line"/>
    </contour>
    <contour>
      <point x="976" y="-86" type="line"/>
      <point x="976" y="750" type="line"/>
      <point x="824" y="750" type="line"/>
      <point x="824" y="-86" type="line"/>
    </contour>
  </outline>
</glyph>
<glyph name="less_dollar" format="1">
  <advance width="1200"/>
  <outline>
    <contour>
      <point x="794" y="-8" type="line"/>
      <point x="794" y="112" type="line"/>
      <point x="884" y="129"/>
      <point x="929" y="185"/>
      <point x="929" y="251" type="curve" smooth="yes"/>
      <point x="929" y="397"/>
      <point x="704" y="394"/>
      <point x="704" y="438" type="curve" smooth="yes"/>
      <point x="704" y="455"/>
      <point x="718" y="464"/>
      <point x="747" y="464" type="curve" smooth="yes"/>
      <point x="788" y="464"/>
      <point x="817" y="451"/>
      <point x="856" y="426" type="curve"/>
      <point x="923" y="504" type="line"/>
      <point x="889" y="538"/>
      <point x="848" y="563"/>
      <point x="794" y="571" type="curve"/>
      <point x="794" y="675" type="line"/>
      <point x="705" y="675" type="line"/>
      <point x="705" y="570" type="line"/>
      <point x="622" y="556"/>
      <point x="573" y="507"/>
      <point x="573" y="437" type="curve" smooth="yes"/>
      <point x="573" y="286"/>
      <point x="798" y="296"/>
      <point x="798" y="242" type="curve" smooth="yes"/>
      <point x="798" y="226"/>
      <point x="783" y="218"/>
      <point x="753" y="218" type="curve" smooth="yes"/>
      <point x="707" y="218"/>
      <point x="665" y="234"/>
      <point x="611" y="266" type="curve"/>
      <point x="552" y="173" type="line"/>
      <point x="593" y="137"/>
      <point x="654" y="115"/>
      <point x="705" y="109" type="curve"/>
      <point x="705" y="-8" type="line"/>
    </contour>
    <contour>
      <point x="506" y="178" type="line"/>
      <point x="254" y="330" type="line"/>
      <point x="254" y="334" type="line"/>
      <point x="506" y="486" type="line"/>
      <point x="506" y="640" type="line"/>
      <point x="114" y="390" type="line"/>
      <point x="114" y="274" type="line"/>
      <point x="506" y="24" type="line"/>
    </contour>
  </outline>
</glyph>
<glyph name="less_equal" format="1">
  <advance width="1200"/>
  <outline>
    <contour>
      <point x="806" y="178" type="line"/>
      <point x="554" y="330" type="line"/>
      <point x="554" y="334" type="line"/>
      <point x="806" y="486" type="line"/>
      <point x="806" y="640" type="line"/>
      <point x="414" y="390" type="line"/>
      <point x="414" y="274" type="line"/>
      <point x="806" y="24" type="line"/>
    </contour>
    <contour>
      <point x="806" y="-34" type="line"/>
      <point x="414" y="216" type="line"/>
      <point x="414" y="62" type="line"/>
      <point x="806" y="-188" type="line"/>
    </contour>
  </outline>
</glyph>
<glyph name="less_equal_equal" format="1">
  <advance width="1800"/>
  <outline>
    <contour>
      <point x="470" y="152" type="line"/>
      <point x="446" y="172" type="line"/>
      <point x="1736" y="172" type="line"/>
      <point x="1736" y="270" type="line"/>
      <point x="331" y="270" type="line"/>
      <point x="262" y="328" type="line"/>
      <point x="262" y="332" type="line"/>
      <point x="331" y="390" type="line"/>
      <point x="1736" y="390" type="line"/>
      <point x="1736" y="488" type="line"/>
      <point x="446" y="488" type="line"/>
      <point x="470" y="508" type="line"/>
      <point x="390" y="600" type="line"/>
      <point x="110" y="332" type="line"/>
      <point x="110" y="328" type="line"/>
      <point x="390" y="60" type="line"/>
    </contour>
  </outline>
</glyph>
<glyph name="less_equal_greater" format="1">
  <advance width="1800"/>
  <outline>
    <contour>
      <point x="522" y="102" type="line"/>
      <point x="446" y="172" type="line"/>
      <point x="1354" y="172" type="line"/>
      <point x="1278" y="102" type="line"/>
      <point x="1358" y="10" type="line"/>
      <point x="1690" y="328" type="line"/>
      <point x="1690" y="332" type="line"/>
      <point x="1358" y="650" type="line"/>
      <point x="1278" y="558" type="line"/>
      <point x="1354" y="488" type="line"/>
      <point x="446" y="488" type="line"/>
      <point x="522" y="558" type="line"/>
      <point x="442" y="650" type="line"/>
      <point x="110" y="332" type="line"/>
      <point x="110" y="328" type="line"/>
      <point x="442" y="10" type="line"/>
    </contour>
    <contour>
      <point x="262" y="328" type="line"/>
      <point x="262" y="332" type="line"/>
      <point x="331" y="390" type="line"/>
      <point x="1469" y="390" type="line"/>
      <point x="1538" y="332" type="line"/>
      <point x="1538" y="328" type="line"/>
      <point x="1469" y="270" type="line"/>
      <point x="331" y="270" type="line"/>
    </contour>
  </outline>
</glyph>
<glyph name="less_equal_less" format="1">
  <advance width="1800"/>
  <outline>
    <contour>
      <point x="524" y="102" type="line"/>
      <point x="448" y="172" type="line"/>
      <point x="1461" y="172" type="line"/>
      <point x="1578" y="60" type="line"/>
      <point x="1579" y="61" type="line"/>
      <point x="1632" y="10" type="line"/>
      <point x="1712" y="102" type="line"/>
      <point x="1519" y="270" type="line"/>
      <point x="333" y="270" type="line"/>
      <point x="264" y="328" type="line"/>
      <point x="264" y="332" type="line"/>
      <point x="333" y="390" type="line"/>
      <point x="1519" y="390" type="line"/>
      <point x="1712" y="558" type="line"/>
      <point x="1632" y="650" type="line"/>
      <point x="1461" y="488" type="line"/>
      <point x="448" y="488" type="line"/>
      <point x="524" y="558" type="line"/>
      <point x="444" y="650" type="line"/>
      <point x="112" y="332" type="line"/>
      <point x="112" y="328" type="line"/>
      <point x="444" y="10" type="line"/>
    </contour>
  </outline>
</glyph>
<glyph name="less_exclam_hyphen_hyphen" format="1">
  <advance width="2400"/>
  <outline>
    <contour>
      <point x="522" y="102" type="line"/>
      <point x="329" y="270" type="line"/>
      <point x="780" y="270" type="line"/>
      <point x="780" y="390" type="line"/>
      <point x="329" y="390" type="line"/>
      <point x="522" y="558" type="line"/>
      <point x="442" y="650" type="line"/>
      <point x="110" y="332" type="line"/>
      <point x="110" y="328" type="line"/>
      <point x="442" y="10" type="line"/>
    </contour>
    <contour>
      <point x="964" y="-12"/>
      <point x="1010" y="35"/>
      <point x="1010" y="99" type="curve" smooth="yes"/>
      <point x="1010" y="163"/>
      <point x="964" y="208"/>
      <point x="900" y="208" type="curve" smooth="yes"/>
      <point x="836" y="208"/>
      <point x="790" y="163"/>
      <point x="790" y="99" type="curve" smooth="yes"/>
      <point x="790" y="35"/>
      <point x="836" y="-12"/>
      <point x="900" y="-12" type="curve" smooth="yes"/>
    </contour>
    <contour>
      <point x="956" y="264" type="line"/>
      <point x="980" y="522" type="line"/>
      <point x="986" y="670" type="line"/>
      <point x="814" y="670" type="line"/>
      <point x="820" y="522" type="line"/>
      <point x="844" y="264" type="line"/>
    </contour>
    <contour>
      <point x="2336" y="270" type="line"/>
      <point x="2336" y="390" type="line"/>
      <point x="1020" y="390" type="line"/>
      <point x="1020" y="270" type="line"/>
    </contour>
  </outline>
</glyph>
<glyph name="less_greater" format="1">
  <advance width="1200"/>
  <outline>
    <contour>
      <point x="1086" y="274" type="line"/>
      <point x="1086" y="390" type="line"/>
      <point x="600" y="640" type="line"/>
      <point x="114" y="390" type="line"/>
      <point x="114" y="274" type="line"/>
      <point x="600" y="24" type="line"/>
    </contour>
    <contour>
      <point x="254" y="330" type="line"/>
      <point x="254" y="334" type="line"/>
      <point x="600" y="487" type="line"/>
      <point x="946" y="334" type="line"/>
      <point x="946" y="330" type="line"/>
      <point x="600" y="178" type="line"/>
    </contour>
  </outline>
</glyph>
<glyph name="less_hyphen" format="1">
  <advance width="1200"/>
  <outline>
    <contour>
      <point x="23" y="332" type="line"/>
      <point x="506" y="24" type="line"/>
      <point x="506" y="178" type="line"/>
      <point x="353" y="270" type="line"/>
      <point x="1131" y="270" type="line"/>
      <point x="1131" y="390" type="line"/>
      <point x="347" y="390" type="line"/>
      <point x="506" y="486" type="line"/>
      <point x="506" y="640" type="line"/>
    </contour>
  </outline>
</glyph>
<glyph name="less_hyphen_greater" format="1">
  <advance width="1800"/>
  <outline>
    <contour>
      <point x="372" y="153" type="line"/>
      <point x="242" y="263" type="line"/>
      <point x="1558" y="263" type="line"/>
      <point x="1428" y="153" type="line"/>
      <point x="1508" y="61" type="line"/>
      <point x="1788" y="329" type="line"/>
      <point x="1788" y="333" type="line"/>
      <point x="1508" y="601" type="line"/>
      <point x="1428" y="509" type="line"/>
      <point x="1558" y="399" type="line"/>
      <point x="242" y="399" type="line"/>
      <point x="372" y="509" type="line"/>
      <point x="292" y="601" type="line"/>
      <point x="12" y="333" type="line"/>
      <point x="12" y="329" type="line"/>
      <point x="292" y="61" type="line"/>
    </contour>
  </outline>
</glyph>
<glyph name="less_hyphen_hyphen" format="1">
  <advance width="1800"/>
  <outline>
    <contour>
      <point x="506" y="176" type="line"/>
      <point x="350" y="270" type="line"/>
      <point x="1736" y="270" type="line"/>
      <point x="1736" y="390" type="line"/>
      <point x="350" y="390" type="line"/>
      <point x="506" y="484" type="line"/>
      <point x="506" y="638" type="line"/>
      <point x="114" y="388" type="line"/>
      <point x="114" y="272" type="line"/>
      <point x="506" y="22" type="line"/>
    </contour>
  </outline>
</glyph>
<glyph name="less_hyphen_less" format="1">
  <advance width="1800"/>
  <outline>
    <contour>
      <point x="506" y="176" type="line"/>
      <point x="350" y="270" type="line"/>
      <point x="1317" y="270" type="line"/>
      <point x="1706" y="22" type="line"/>
      <point x="1706" y="176" type="line"/>
      <point x="1454" y="328" type="line"/>
      <point x="1454" y="332" type="line"/>
      <point x="1706" y="484" type="line"/>
      <point x="1706" y="638" type="line"/>
      <point x="1317" y="390" type="line"/>
      <point x="350" y="390" type="line"/>
      <point x="506" y="484" type="line"/>
      <point x="506" y="638" type="line"/>
      <point x="114" y="388" type="line"/>
      <point x="114" y="272" type="line"/>
      <point x="506" y="22" type="line"/>
    </contour>
  </outline>
</glyph>
<glyph name="less_less" format="1">
  <advance width="1200"/>
  <outline>
    <contour>
      <point x="1031" y="178" type="line"/>
      <point x="779" y="330" type="line"/>
      <point x="779" y="334" type="line"/>
      <point x="1031" y="486" type="line"/>
      <point x="1031" y="640" type="line"/>
      <point x="639" y="390" type="line"/>
      <point x="639" y="274" type="line"/>
      <point x="1031" y="24" type="line"/>
    </contour>
    <contour>
      <point x="581" y="178" type="line"/>
      <point x="329" y="330" type="line"/>
      <point x="329" y="334" type="line"/>
      <point x="581" y="486" type="line"/>
      <point x="581" y="640" type="line"/>
      <point x="189" y="390" type="line"/>
      <point x="189" y="274" type="line"/>
      <point x="581" y="24" type="line"/>
    </contour>
  </outline>
</glyph>
<glyph name="less_less_equal" format="1">
  <advance width="1800"/>
  <outline>
    <contour>
      <point x="956" y="150" type="line"/>
      <point x="1736" y="150" type="line"/>
      <point x="1736" y="270" type="line"/>
      <point x="800" y="270" type="line"/>
      <point x="704" y="328" type="line"/>
      <point x="704" y="332" type="line"/>
      <point x="800" y="390" type="line"/>
      <point x="1736" y="390" type="line"/>
      <point x="1736" y="510" type="line"/>
      <point x="956" y="510" type="line"/>
      <point x="956" y="638" type="line"/>
      <point x="564" y="388" type="line"/>
      <point x="564" y="272" type="line"/>
      <point x="956" y="22" type="line"/>
    </contour>
    <contour>
      <point x="506" y="176" type="line"/>
      <point x="254" y="328" type="line"/>
      <point x="254" y="332" type="line"/>
      <point x="506" y="484" type="line"/>
      <point x="506" y="638" type="line"/>
      <point x="114" y="388" type="line"/>
      <point x="114" y="272" type="line"/>
      <point x="506" y="22" type="line"/>
    </contour>
  </outline>
</glyph>
<glyph name="less_less_less" format="1">
  <advance width="1800"/>
  <outline>
    <contour>
      <point x="1556" y="178" type="line"/>
      <point x="1304" y="330" type="line"/>
      <point x="1304" y="334" type="line"/>
      <point x="1556" y="486" type="line"/>
      <point x="1556" y="640" type="line"/>
      <point x="1164" y="390" type="line"/>
      <point x="1164" y="274" type="line"/>
      <point x="1556" y="24" type="line"/>
    </contour>
    <contour>
      <point x="656" y="178" type="line"/>
      <point x="404" y="330" type="line"/>
      <point x="404" y="334" type="line"/>
      <point x="656" y="486" type="line"/>
      <point x="656" y="640" type="line"/>
      <point x="264" y="390" type="line"/>
      <point x="264" y="274" type="line"/>
      <point x="656" y="24" type="line"/>
    </contour>
    <contour>
      <point x="1106" y="178" type="line"/>
      <point x="854" y="330" type="line"/>
      <point x="854" y="334" type="line"/>
      <point x="1106" y="486" type="line"/>
      <point x="1106" y="640" type="line"/>
      <point x="714" y="390" type="line"/>
      <point x="714" y="274" type="line"/>
      <point x="1106" y="24" type="line"/>
    </contour>
  </outline>
</glyph>
<glyph name="numbersign_numbersign" format="1">
  <advance width="1200"/>
  <outline>
    <contour>
      <point x="212" y="0" type="line"/>
      <point x="234" y="180" type="line"/>
      <point x="326" y="180" type="line"/>
      <point x="304" y="0" type="line"/>
      <point x="402" y="0" type="line"/>
      <point x="424" y="180" type="line"/>
      <point x="736" y="180" type="line"/>
      <point x="714" y="0" type="line"/>
      <point x="812" y="0" type="line"/>
      <point x="834" y="180" type="line"/>
      <point x="926" y="180" type="line"/>
      <point x="904" y="0" type="line"/>
      <point x="1002" y="0" type="line"/>
      <point x="1024" y="180" type="line"/>
      <point x="1180" y="180" type="line"/>
      <point x="1180" y="288" type="line"/>
      <point x="1037" y="288" type="line"/>
      <point x="1048" y="384" type="line"/>
      <point x="1200" y="384" type="line"/>
      <point x="1200" y="492" type="line"/>
      <point x="1061" y="492" type="line"/>
      <point x="1080" y="650" type="line"/>
      <point x="984" y="650" type="line"/>
      <point x="965" y="492" type="line"/>
      <point x="871" y="492" type="line"/>
      <point x="890" y="650" type="line"/>
      <point x="794" y="650" type="line"/>
      <point x="775" y="492" type="line"/>
      <point x="461" y="492" type="line"/>
      <point x="480" y="650" type="line"/>
      <point x="384" y="650" type="line"/>
      <point x="365" y="492" type="line"/>
      <point x="271" y="492" type="line"/>
      <point x="290" y="650" type="line"/>
      <point x="194" y="650" type="line"/>
      <point x="175" y="492" type="line"/>
      <point x="20" y="492" type="line"/>
      <point x="20" y="384" type="line"/>
      <point x="161" y="384" type="line"/>
      <point x="149" y="288" type="line"/>
      <point x="0" y="288" type="line"/>
      <point x="0" y="180" type="line"/>
      <point x="136" y="180" type="line"/>
      <point x="114" y="0" type="line"/>
    </contour>
    <contour>
      <point x="258" y="384" type="line"/>
      <point x="351" y="384" type="line"/>
      <point x="339" y="288" type="line"/>
      <point x="247" y="288" type="line"/>
    </contour>
    <contour>
      <point x="448" y="384" type="line"/>
      <point x="761" y="384" type="line"/>
      <point x="749" y="288" type="line"/>
      <point x="437" y="288" type="line"/>
    </contour>
    <contour>
      <point x="858" y="384" type="line"/>
      <point x="951" y="384" type="line"/>
      <point x="939" y="288" type="line"/>
      <point x="847" y="288" type="line"/>
    </contour>
  </outline>
</glyph>
<glyph name="numbersign_numbersign_numbersign" format="1">
  <advance width="1800"/>
  <outline>
    <contour>
      <point x="212" y="0" type="line"/>
      <point x="234" y="180" type="line"/>
      <point x="326" y="180" type="line"/>
      <point x="304" y="0" type="line"/>
      <point x="402" y="0" type="line"/>
      <point x="424" y="180" type="line"/>
      <point x="736" y="180" type="line"/>
      <point x="714" y="0" type="line"/>
      <point x="812" y="0" type="line"/>
      <point x="834" y="180" type="line"/>
      <point x="926" y="180" type="line"/>
      <point x="904" y="0" type="line"/>
      <point x="1002" y="0" type="line"/>
      <point x="1024" y="180" type="line"/>
      <point x="1336" y="180" type="line"/>
      <point x="1314" y="0" type="line"/>
      <point x="1412" y="0" type="line"/>
      <point x="1434" y="180" type="line"/>
      <point x="1526" y="180" type="line"/>
      <point x="1504" y="0" type="line"/>
      <point x="1602" y="0" type="line"/>
      <point x="1624" y="180" type="line"/>
      <point x="1780" y="180" type="line"/>
      <point x="1780" y="288" type="line"/>
      <point x="1637" y="288" type="line"/>
      <point x="1648" y="384" type="line"/>
      <point x="1800" y="384" type="line"/>
      <point x="1800" y="492" type="line"/>
      <point x="1661" y="492" type="line"/>
      <point x="1680" y="650" type="line"/>
      <point x="1584" y="650" type="line"/>
      <point x="1565" y="492" type="line"/>
      <point x="1471" y="492" type="line"/>
      <point x="1490" y="650" type="line"/>
      <point x="1394" y="650" type="line"/>
      <point x="1375" y="492" type="line"/>
      <point x="1061" y="492" type="line"/>
      <point x="1080" y="650" type="line"/>
      <point x="984" y="650" type="line"/>
      <point x="965" y="492" type="line"/>
      <point x="871" y="492" type="line"/>
      <point x="890" y="650" type="line"/>
      <point x="794" y="650" type="line"/>
      <point x="775" y="492" type="line"/>
      <point x="461" y="492" type="line"/>
      <point x="480" y="650" type="line"/>
      <point x="384" y="650" type="line"/>
      <point x="365" y="492" type="line"/>
      <point x="271" y="492" type="line"/>
      <point x="290" y="650" type="line"/>
      <point x="194" y="650" type="line"/>
      <point x="175" y="492" type="line"/>
      <point x="20" y="492" type="line"/>
      <point x="20" y="384" type="line"/>
      <point x="161" y="384" type="line"/>
      <point x="149" y="288" type="line"/>
      <point x="0" y="288" type="line"/>
      <point x="0" y="180" type="line"/>
      <point x="136" y="180" type="line"/>
      <point x="114" y="0" type="line"/>
    </contour>
    <contour>
      <point x="258" y="384" type="line"/>
      <point x="351" y="384" type="line"/>
      <point x="339" y="288" type="line"/>
      <point x="247" y="288" type="line"/>
    </contour>
    <contour>
      <point x="448" y="384" type="line"/>
      <point x="761" y="384" type="line"/>
      <point x="749" y="288" type="line"/>
      <point x="437" y="288" type="line"/>
    </contour>
    <contour>
      <point x="858" y="384" type="line"/>
      <point x="951" y="384" type="line"/>
      <point x="939" y="288" type="line"/>
      <point x="847" y="288" type="line"/>
    </contour>
    <contour>
      <point x="1048" y="384" type="line"/>
      <point x="1361" y="384" type="line"/>
      <point x="1349" y="288" type="line"/>
      <point x="1037" y="288" type="line"/>
    </contour>
    <contour>
      <point x="1458" y="384" type="line"/>
      <point x="1551" y="384" type="line"/>
      <point x="1539" y="288" type="line"/>
      <point x="1447" y="288" type="line"/>
    </contour>
  </outline>
</glyph>
<glyph name="numbersign_numbersign_numbersign_numbersign" format="1">
  <advance width="2400"/>
  <outline>
    <contour>
      <point x="212" y="0" type="line"/>
      <point x="234" y="180" type="line"/>
      <point x="326" y="180" type="line"/>
      <point x="304" y="0" type="line"/>
      <point x="402" y="0" type="line"/>
      <point x="424" y="180" type="line"/>
      <point x="736" y="180" type="line"/>
      <point x="714" y="0" type="line"/>
      <point x="812" y="0" type="line"/>
      <point x="834" y="180" type="line"/>
      <point x="926" y="180" type="line"/>
      <point x="904" y="0" type="line"/>
      <point x="1002" y="0" type="line"/>
      <point x="1024" y="180" type="line"/>
      <point x="1336" y="180" type="line"/>
      <point x="1314" y="0" type="line"/>
      <point x="1412" y="0" type="line"/>
      <point x="1434" y="180" type="line"/>
      <point x="1526" y="180" type="line"/>
      <point x="1504" y="0" type="line"/>
      <point x="1602" y="0" type="line"/>
      <point x="1624" y="180" type="line"/>
      <point x="1936" y="180" type="line"/>
      <point x="1914" y="0" type="line"/>
      <point x="2012" y="0" type="line"/>
      <point x="2034" y="180" type="line"/>
      <point x="2126" y="180" type="line"/>
      <point x="2104" y="0" type="line"/>
      <point x="2202" y="0" type="line"/>
      <point x="2224" y="180" type="line"/>
      <point x="2380" y="180" type="line"/>
      <point x="2380" y="288" type="line"/>
      <point x="2237" y="288" type="line"/>
      <point x="2248" y="384" type="line"/>
      <point x="2400" y="384" type="line"/>
      <point x="2400" y="492" type="line"/>
      <point x="2261" y="492" type="line"/>
      <point x="2280" y="650" type="line"/>
      <point x="2184" y="650" type="line"/>
      <point x="2165" y="492" type="line"/>
      <point x="2071" y="492" type="line"/>
      <point x="2090" y="650" type="line"/>
      <point x="1994" y="650" type="line"/>
      <point x="1975" y="492" type="line"/>
      <point x="1661" y="492" type="line"/>
      <point x="1680" y="650" type="line"/>
      <point x="1584" y="650" type="line"/>
      <point x="1565" y="492" type="line"/>
      <point x="1471" y="492" type="line"/>
      <point x="1490" y="650" type="line"/>
      <point x="1394" y="650" type="line"/>
      <point x="1375" y="492" type="line"/>
      <point x="1061" y="492" type="line"/>
      <point x="1080" y="650" type="line"/>
      <point x="984" y="650" type="line"/>
      <point x="965" y="492" type="line"/>
      <point x="871" y="492" type="line"/>
      <point x="890" y="650" type="line"/>
      <point x="794" y="650" type="line"/>
      <point x="775" y="492" type="line"/>
      <point x="461" y="492" type="line"/>
      <point x="480" y="650" type="line"/>
      <point x="384" y="650" type="line"/>
      <point x="365" y="492" type="line"/>
      <point x="271" y="492" type="line"/>
      <point x="290" y="650" type="line"/>
      <point x="194" y="650" type="line"/>
      <point x="175" y="492" type="line"/>
      <point x="20" y="492" type="line"/>
      <point x="20" y="384" type="line"/>
      <point x="161" y="384" type="line"/>
      <point x="149" y="288" type="line"/>
      <point x="0" y="288" type="line"/>
      <point x="0" y="180" type="line"/>
      <point x="136" y="180" type="line"/>
      <point x="114" y="0" type="line"/>
    </contour>
    <contour>
      <point x="258" y="384" type="line"/>
      <point x="351" y="384" type="line"/>
      <point x="339" y="288" type="line"/>
      <point x="247" y="288" type="line"/>
    </contour>
    <contour>
      <point x="448" y="384" type="line"/>
      <point x="761" y="384" type="line"/>
      <point x="749" y="288" type="line"/>
      <point x="437" y="288" type="line"/>
    </contour>
    <contour>
      <point x="858" y="384" type="line"/>
      <point x="951" y="384" type="line"/>
      <point x="939" y="288" type="line"/>
      <point x="847" y="288" type="line"/>
    </contour>
    <contour>
      <point x="1048" y="384" type="line"/>
      <point x="1361" y="384" type="line"/>
      <point x="1349" y="288" type="line"/>
      <point x="1037" y="288" type="line"/>
    </contour>
    <contour>
      <point x="1458" y="384" type="line"/>
      <point x="1551" y="384" type="line"/>
      <point x="1539" y="288" type="line"/>
      <point x="1447" y="288" type="line"/>
    </contour>
    <contour>
      <point x="1648" y="384" type="line"/>
      <point x="1961" y="384" type="line"/>
      <point x="1949" y="288" type="line"/>
      <point x="1637" y="288" type="line"/>
    </contour>
    <contour>
      <point x="2058" y="384" type="line"/>
      <point x="2151" y="384" type="line"/>
      <point x="2139" y="288" type="line"/>
      <point x="2047" y="288" type="line"/>
    </contour>
  </outline>
</glyph>
<glyph name="period_equal" format="1">
  <advance width="1200"/>
  <outline>
    <contour>
      <point x="1136" y="390" type="line"/>
      <point x="1136" y="510" type="line"/>
      <point x="528" y="510" type="line"/>
      <point x="528" y="390" type="line"/>
    </contour>
    <contour>
      <point x="378" y="200"/>
      <point x="430" y="258"/>
      <point x="430" y="330" type="curve" smooth="yes"/>
      <point x="430" y="401"/>
      <point x="378" y="460"/>
      <point x="300" y="460" type="curve" smooth="yes"/>
      <point x="222" y="460"/>
      <point x="170" y="401"/>
      <point x="170" y="330" type="curve" smooth="yes"/>
      <point x="170" y="258"/>
      <point x="222" y="200"/>
      <point x="300" y="200" type="curve" smooth="yes"/>
    </contour>
    <contour>
      <point x="1136" y="150" type="line"/>
      <point x="1136" y="270" type="line"/>
      <point x="528" y="270" type="line"/>
      <point x="528" y="150" type="line"/>
    </contour>
  </outline>
</glyph>
<glyph name="plus_plus" format="1">
  <advance width="1200"/>
  <outline>
    <contour>
      <point x="84" y="270" type="line"/>
      <point x="1116" y="270" type="line"/>
      <point x="1116" y="390" type="line"/>
      <point x="84" y="390" type="line"/>
    </contour>
    <component base="plus" xOffset="519"/>
    <component base="plus" xOffset="81"/>
  </outline>
</glyph>
<glyph name="plus_plus_plus" format="1">
  <advance width="1800"/>
  <outline>
    <contour>
      <point x="1736" y="270" type="line"/>
      <point x="1736" y="390" type="line"/>
      <point x="64" y="390" type="line"/>
      <point x="64" y="270" type="line"/>
    </contour>
    <component base="plus" xOffset="1075"/>
    <component base="plus" xOffset="600"/>
    <component base="plus" xOffset="125"/>
  </outline>
</glyph>
<glyph name="slash_equal" format="1">
  <advance width="1200"/>
  <outline>
    <contour>
      <point x="206" y="-160" type="line"/>
      <point x="536" y="710" type="line"/>
      <point x="394" y="710" type="line"/>
      <point x="64" y="-160" type="line"/>
    </contour>
    <contour>
      <point x="1136" y="150" type="line"/>
      <point x="1136" y="270" type="line"/>
      <point x="426" y="270" type="line"/>
      <point x="380" y="150" type="line"/>
    </contour>
    <contour>
      <point x="1136" y="390" type="line"/>
      <point x="1136" y="510" type="line"/>
      <point x="517" y="510" type="line"/>
      <point x="471" y="390" type="line"/>
    </contour>
  </outline>
</glyph>
<glyph name="w_w_w" format="1">
  <advance width="1800"/>
  <outline>
    <contour>
      <point x="432" y="0" type="line"/>
      <point x="448" y="134" type="line" smooth="yes"/>
      <point x="456" y="207"/>
      <point x="459" y="248"/>
      <point x="462" y="282" type="curve"/>
      <point x="466" y="282" type="line"/>
      <point x="471" y="227"/>
      <point x="476" y="180"/>
      <point x="482" y="134" type="curve" smooth="yes"/>
      <point x="498" y="0" type="line"/>
      <point x="635" y="0" type="line"/>
      <point x="657" y="130" type="line" smooth="yes"/>
      <point x="665" y="180"/>
      <point x="673" y="230"/>
      <point x="680" y="282" type="curve"/>
      <point x="684" y="282" type="line"/>
      <point x="689" y="227"/>
      <point x="695" y="180"/>
      <point x="700" y="134" type="curve" smooth="yes"/>
      <point x="716" y="0" type="line"/>
      <point x="853" y="0" type="line"/>
      <point x="875" y="130" type="line" smooth="yes"/>
      <point x="883" y="180"/>
      <point x="891" y="230"/>
      <point x="898" y="282" type="curve"/>
      <point x="902" y="282" type="line"/>
      <point x="907" y="227"/>
      <point x="913" y="180"/>
      <point x="918" y="134" type="curve" smooth="yes"/>
      <point x="934" y="0" type="line"/>
      <point x="1071" y="0" type="line"/>
      <point x="1093" y="130" type="line" smooth="yes"/>
      <point x="1101" y="180"/>
      <point x="1109" y="230"/>
      <point x="1116" y="282" type="curve"/>
      <point x="1120" y="282" type="line"/>
      <point x="1125" y="227"/>
      <point x="1131" y="180"/>
      <point x="1136" y="134" type="curve" smooth="yes"/>
      <point x="1152" y="0" type="line"/>
      <point x="1289" y="0" type="line"/>
      <point x="1311" y="130" type="line" smooth="yes"/>
      <point x="1319" y="180"/>
      <point x="1327" y="230"/>
      <point x="1334" y="282" type="curve"/>
      <point x="1338" y="282" type="line"/>
      <point x="1343" y="227"/>
      <point x="1349" y="180"/>
      <point x="1354" y="134" type="curve" smooth="yes"/>
      <point x="1370" y="0" type="line"/>
      <point x="1568" y="0" type="line"/>
      <point x="1634" y="500" type="line"/>
      <point x="1474" y="500" type="line"/>
      <point x="1458" y="290" type="line" smooth="yes"/>
      <point x="1454" y="240"/>
      <point x="1453" y="190"/>
      <point x="1447" y="138" type="curve"/>
      <point x="1443" y="138" type="line"/>
      <point x="1436" y="190"/>
      <point x="1428" y="240"/>
      <point x="1420" y="290" type="curve" smooth="yes"/>
      <point x="1398" y="420" type="line"/>
      <point x="1261" y="420" type="line"/>
      <point x="1245" y="286" type="line" smooth="yes"/>
      <point x="1240" y="240"/>
      <point x="1234" y="193"/>
      <point x="1229" y="138" type="curve"/>
      <point x="1225" y="138" type="line"/>
      <point x="1218" y="190"/>
      <point x="1210" y="240"/>
      <point x="1202" y="290" type="curve" smooth="yes"/>
      <point x="1180" y="420" type="line"/>
      <point x="1043" y="420" type="line"/>
      <point x="1027" y="286" type="line" smooth="yes"/>
      <point x="1022" y="240"/>
      <point x="1016" y="193"/>
      <point x="1011" y="138" type="curve"/>
      <point x="1007" y="138" type="line"/>
      <point x="1000" y="190"/>
      <point x="992" y="240"/>
      <point x="984" y="290" type="curve" smooth="yes"/>
      <point x="962" y="420" type="line"/>
      <point x="825" y="420" type="line"/>
      <point x="809" y="286" type="line" smooth="yes"/>
      <point x="804" y="240"/>
      <point x="798" y="193"/>
      <point x="793" y="138" type="curve"/>
      <point x="789" y="138" type="line"/>
      <point x="782" y="190"/>
      <point x="774" y="240"/>
      <point x="766" y="290" type="curve" smooth="yes"/>
      <point x="744" y="420" type="line"/>
      <point x="607" y="420" type="line"/>
      <point x="591" y="286" type="line" smooth="yes"/>
      <point x="586" y="240"/>
      <point x="580" y="193"/>
      <point x="575" y="138" type="curve"/>
      <point x="571" y="138" type="line"/>
      <point x="564" y="190"/>
      <point x="557" y="240"/>
      <point x="548" y="290" type="curve" smooth="yes"/>
      <point x="526" y="420" type="line"/>
      <point x="410" y="420" type="line"/>
      <point x="390" y="290" type="line"/>
      <point x="380" y="242"/>
      <point x="374" y="190"/>
      <point x="369" y="138" type="curve"/>
      <point x="366" y="138" type="line"/>
      <point x="360" y="190"/>
      <point x="357" y="240"/>
      <point x="352" y="290" type="curve" smooth="yes"/>
      <point x="332" y="500" type="line"/>
      <point x="166" y="500" type="line"/>
      <point x="238" y="0" type="line"/>
    </contour>
  </outline>
</glyph>
